<svg xmlns="http://www.w3.org/2000/svg" style="display: none;">
	<symbol id="sharetastic-facebook" viewBox="0 0 10 19">
		<title>Facebook</title>
		<path d="M3,19v-8.7H0V7h3V4.5C3,1.6,4.7,0,7.3,0C8.6,0,9.7,0.1,10,0.1v3.1l-1.9,0c-1.4,0-1.7,0.7-1.7,1.6V7h3.4l-0.4,3.3h-3V19H3z"/>
	</symbol>
	<symbol id="sharetastic-twitter" viewBox="0 0 18 14">
		<title>Twitter</title>
		<path d="M18,1.7L18,1.7L18,1.7 M12.5,0c-2,0-3.7,1.6-3.7,3.5c0,0.3,0,0.5,0.1,0.8C5.8,4.2,3.1,2.8,1.3,0.6C0.9,1.2,0.8,1.8,0.8,2.4c0,1.2,0.7,2.3,1.6,2.9c-0.6,0-1.2-0.2-1.7-0.4c0,0,0,0,0,0c0,1.7,1.3,3.1,3,3.5C3.4,8.5,3,8.6,2.7,8.6c-0.2,0-0.5,0-0.7-0.1c0.5,1.4,1.8,2.4,3.4,2.5c-1.3,0.9-2.9,1.5-4.6,1.5c-0.3,0-0.6,0-0.9,0c1.6,1,3.6,1.6,5.7,1.6c6.8,0,10.5-5.4,10.5-10.1c0-0.2,0-0.3,0-0.5C16.9,3,17.5,2.4,18,1.7c-0.7,0.3-1.4,0.5-2.1,0.6c0.8-0.4,1.3-1.1,1.6-2C16.8,0.7,16,1,15.2,1.1C14.5,0.4,13.5,0,12.5,0"/>
	</symbol>
	<symbol id="sharetastic-linkedin" viewBox="0 0 18 18">
		<title>LinkedIn</title>
		<path d="M2.2,0C1,0,0,1,0,2.2c0,1.2,1,2.2,2.2,2.2c1.2,0,2.2-1,2.2-2.2C4.3,1,3.4,0,2.2,0z M0.3,18H4V6H0.3V18zM13.5,5.7c-1.8,0-3,1-3.5,1.9h0V6H6.4v12h3.7v-5.9c0-1.6,0.3-3.1,2.2-3.1c1.9,0,1.9,1.8,1.9,3.2V18H18v-6.6C18,8.2,17.3,5.7,13.5,5.7z"/>
	</symbol>
	<symbol id="sharetastic-googleplus" viewBox="0 0 48 48">
		<title>Google Plus</title>
		<path d="M48,22h-5v-5h-4v5h-5v4h5v5h4v-5h5 M16,21v6.24h8.72c-0.67,3.76-3.93,6.5-8.72,6.5c-5.28,0-9.57-4.47-9.57-9.75 s4.29-9.74,9.57-9.74c2.38,0,4.51,0.82,6.19,2.42v0.01l4.51-4.51C23.93,9.59,20.32,8,16,8C7.16,8,0,15.16,0,24s7.16,16,16,16 c9.24,0,15.36-6.5,15.36-15.64c0-1.17-0.11-2.29-0.31-3.36C31.05,21,16,21,16,21z"/>
	</symbol>
	<symbol id="sharetastic-email" viewBox="0 0 20 13">
		<title>Email</title>
		<path d="M10,7.3L10,7.3L10,7.3L0.1,1.4C0,1.6,0,1.8,0,2v8.9C0,12,0.9,13,2,13h16c1.1,0,2-1,2-2.1V2c0-0.2,0-0.4-0.1-0.6L10,7.3z"/>
		<path d="M10,5L18.3,0c-0.1,0-0.2,0-0.3,0H2C1.9,0,1.8,0,1.7,0L10,5z"/>
	</symbol>
</svg>
