<?xml version="1.0" encoding="utf-8"?>
<!-- Generator: Adobe Illustrator 18.1.1, SVG Export Plug-In . SVG Version: 6.00 Build 0)  -->
<svg version="1.1" id="Layer_1" xmlns="http://www.w3.org/2000/svg" xmlns:xlink="http://www.w3.org/1999/xlink" x="0px" y="0px"
   width="30px" height="30px" viewBox="0 0 30 30" enable-background="new 0 0 30 30" xml:space="preserve">
<g>
  <path fill-rule="evenodd" clip-rule="evenodd" fill="#FFFFFF" d="M15,0C6.7,0,0,6.7,0,15c0,6.6,4.3,12.2,10.3,14.2
    c0.7,0.1,1-0.3,1-0.7c0-0.4,0-1.5,0-2.8c-4.2,0.9-5.1-1.8-5.1-1.8c-0.7-1.7-1.7-2.2-1.7-2.2c-1.4-0.9,0.1-0.9,0.1-0.9
    c1.5,0.1,2.3,1.5,2.3,1.5c1.3,2.3,3.5,1.6,4.4,1.2c0.1-1,0.5-1.6,1-2c-3.3-0.4-6.8-1.7-6.8-7.4c0-1.6,0.6-3,1.5-4
    c-0.2-0.4-0.7-1.9,0.1-4c0,0,1.3-0.4,4.1,1.5c1.2-0.3,2.5-0.5,3.8-0.5c1.3,0,2.6,0.2,3.8,0.5c2.9-1.9,4.1-1.5,4.1-1.5
    c0.8,2.1,0.3,3.6,0.1,4c1,1.1,1.5,2.4,1.5,4c0,5.8-3.5,7-6.8,7.4c0.5,0.5,1,1.4,1,2.8c0,2,0,3.6,0,4.1c0,0.4,0.3,0.9,1,0.7
    c6-2,10.2-7.6,10.2-14.2C30,6.7,23.3,0,15,0z"/>
  <path fill="#FFFFFF" d="M5.7,21.5c0,0.1-0.2,0.1-0.3,0c-0.1,0-0.2-0.2-0.1-0.2c0-0.1,0.1-0.1,0.3,0C5.7,21.4,5.7,21.5,5.7,21.5
    L5.7,21.5z M5.5,21.4"/>
  <path fill="#FFFFFF" d="M6.3,22.2c-0.1,0.1-0.2,0-0.3-0.1c-0.1-0.1-0.1-0.2,0-0.3c0.1-0.1,0.2,0,0.3,0.1C6.3,22,6.4,22.1,6.3,22.2
    L6.3,22.2z M6.1,22.1"/>
  <path fill="#FFFFFF" d="M6.9,23.1c-0.1,0.1-0.2,0-0.3-0.1c-0.1-0.1-0.1-0.3,0-0.4c0.1-0.1,0.2,0,0.3,0.1C7,22.9,7,23,6.9,23.1
    L6.9,23.1z M6.9,23.1"/>
  <path fill="#FFFFFF" d="M7.7,23.9C7.6,24,7.4,24,7.3,23.9c-0.1-0.1-0.2-0.3-0.1-0.4c0.1-0.1,0.3-0.1,0.4,0.1
    C7.7,23.7,7.8,23.8,7.7,23.9L7.7,23.9z M7.7,23.9"/>
  <path fill="#FFFFFF" d="M8.8,24.4c0,0.1-0.2,0.2-0.4,0.1c-0.2-0.1-0.3-0.2-0.2-0.3c0-0.1,0.2-0.2,0.4-0.1
    C8.7,24.1,8.8,24.3,8.8,24.4L8.8,24.4z M8.8,24.4"/>
  <path fill="#FFFFFF" d="M10,24.5c0,0.1-0.1,0.2-0.3,0.2c-0.2,0-0.3-0.1-0.3-0.2c0-0.1,0.1-0.2,0.3-0.2C9.9,24.3,10,24.4,10,24.5
    L10,24.5z M10,24.5"/>
  <path fill="#FFFFFF" d="M11.2,24.3c0,0.1-0.1,0.2-0.3,0.3c-0.2,0-0.3,0-0.4-0.2c0-0.1,0.1-0.2,0.3-0.3C11,24.1,11.2,24.2,11.2,24.3
    L11.2,24.3z M11.2,24.3"/>
</g>
</svg>