<?xml version="1.0" encoding="utf-8"?>
<!-- Generator: Adobe Illustrator 19.2.1, SVG Export Plug-In . SVG Version: 6.00 Build 0)  -->
<svg version="1.1" id="Layer_1" xmlns="http://www.w3.org/2000/svg" xmlns:xlink="http://www.w3.org/1999/xlink" x="0px" y="0px"
	 viewBox="0 0 70 70" width="70" height="70" xml:space="preserve">
<path fill="#ffffff" d="M19.4,57c-3,0.9-5.7-2.9-7.1-8.2c3.5-5,6.9-10.1,9.6-15C22.3,41.2,23.7,55.7,19.4,57z M50,18.3
	c-2.5,0.3-5.1,0.5-7.7,0.4c-1.4-0.1-1.9,0.6-1,1.8c0.7,1,2.9,2.4,6,2.4c-4,7.3-7.8,15.1-9.8,19.7c-0.7,1.6-1.1,3.1-1.4,4.5
	c-2.4,4.1-5.8,8-10.8,9.8c3.3-2.2,4-6.1,4.2-9.7c0.3-6.4-1.5-13.6-0.8-22.1c0.4-0.6,0.6-1.2,1-1.8c1.2-2.1,1.7-3.1,0.7-4.1
	c-0.8-0.8-3-0.5-5,1.4c-1.9,1.8-2.9,3.5-3.3,7.1c-2.7,4.7-6.8,10.7-10.6,15.9c-0.1-0.7-0.1-1.5-0.2-2.2c-0.1-1.5-0.8-1.8-1.9-0.9
	c-3.1,2.6-3.4,8.7-1.2,12.9c3.1,5.7,8.3,7.1,13.7,6.9c5.4-0.2,10.7-2.7,14.3-7.2c1,4.4,4.2,6.9,7.9,7.1c7.4,0.3,13.5-7.9,14.7-10.5
	c0.9-2.1,1.4-3.8,0.9-5.3c-0.4-1.3-1.4-1.1-1.9,0C54.3,51.4,49,58,44.9,57.8C41,57.6,40,51.9,43,45.1c3.5-7.8,8.8-16.7,12.4-22.9
	c2.3-0.4,5.2-0.6,7.2-0.4c1.4,0,1.8-0.6,1.1-1.8c-0.7-1.2-2.1-2.9-5.7-2.8c1.3-2.9,1.8-5.1,1.8-7C66.1,16.7,70,25.4,70,35
	c0,19.3-15.7,35-35,35S0,54.3,0,35S15.7,0,35,0c8.1,0,15.6,2.8,21.5,7.4C55,9.6,52.6,13.7,50,18.3z"/>
</svg>
