<svg xmlns="http://www.w3.org/2000/svg" class="sharetastic__svg">
	<symbol id="sharetastic-googleplus" viewBox="0 0 32 32">
		<title>Google +</title>
		<path d="M28,15.1h-2.3v-2.2h-1.8v2.2h-2.3v1.8h2.3v2.2h1.8v-2.2H28 M13.3,14.7v2.7h4c-0.3,1.6-1.8,2.8-4,2.8
	c-2.4,0-4.4-2-4.4-4.3s2-4.3,4.4-4.3c1.1,0,2.1,0.4,2.8,1.1v0l2.1-2C17,9.7,15.3,9,13.3,9C9.3,9,6,12.1,6,16s3.3,7,7.3,7
	c4.2,0,7-2.8,7-6.8c0-0.5-0.1-1-0.1-1.5C20.2,14.7,13.3,14.7,13.3,14.7z"/>
	</symbol>

	<symbol id="sharetastic-facebook" viewBox="0 0 32 32">
		<title>Facebook</title>
		<path d="M16.8,25v-8.2h2.7l0.4-3.2h-3.1v-2c0-0.9,0.2-1.6,1.5-1.6l1.6,0V7.1c-0.3,0-1.3-0.1-2.4-0.1
	c-2.4,0-4,1.5-4,4.2v2.4H11v3.2h2.7V25H16.8z"/>
	</symbol>

	<symbol id="sharetastic-twitter" viewBox="0 0 32 32">
		<title>Twitter</title>
		<path d="M13.7,23c6.8,0,10.5-5.4,10.5-10.1c0-0.2,0-0.3,0-0.5c0.7-0.5,1.3-1.1,1.8-1.8c-0.7,0.3-1.4,0.5-2.1,0.6
		c0.8-0.4,1.3-1.1,1.6-2c-0.7,0.4-1.5,0.7-2.3,0.9C22.5,9.4,21.5,9,20.5,9c-2,0-3.7,1.6-3.7,3.5c0,0.3,0,0.5,0.1,0.8
		c-3.1-0.1-5.8-1.6-7.6-3.7c-0.3,0.5-0.5,1.1-0.5,1.8c0,1.2,0.7,2.3,1.6,2.9c-0.6,0-1.2-0.2-1.7-0.4c0,0,0,0,0,0c0,1.7,1.3,3.1,3,3.5
		c-0.3,0.1-0.6,0.1-1,0.1c-0.2,0-0.5,0-0.7-0.1c0.5,1.4,1.8,2.4,3.4,2.5c-1.3,0.9-2.9,1.5-4.6,1.5c-0.3,0-0.6,0-0.9,0
		C9.6,22.4,11.6,23,13.7,23"/>
	</symbol>

	<symbol id="sharetastic-tumblr" viewBox="0 0 32 32">
		<title>Tumblr</title>
		<path d="M17.8,21.7c-1.4,0-1.7-1-1.7-1.8v-5.3h3.3v-3.1h-3.3V7h-2.6c0,0-0.1,0-0.1,0.1C13.3,8.5,12.6,11,10,12v2.6h2
	v5.6c0,2,1.2,4.9,5,4.8c1.3,0,2.7-0.6,3-1.1l-0.9-2.6C18.9,21.6,18.2,21.7,17.8,21.7z"/>
	</symbol>

	<symbol id="sharetastic-pinterest" viewBox="0 0 32 32">
		<title>Pinterest</title>
		<path d="M11.5,27c0.5-0.8,2.1-3.1,2.3-4.1c0.2-0.6,0.8-2.9,0.8-2.9c0.4,0.7,1.6,1.4,2.9,1.4c3.8,0,6.5-3.3,6.5-7.5
		c0-4-3.4-6.9-7.7-6.9C10.9,7,8,10.5,8,14.3c0,1.8,1,4,2.5,4.7c0.2,0.1,0.4,0.1,0.4-0.2c0-0.2,0.3-1,0.3-1.4c0-0.1,0-0.2-0.1-0.3
		c-0.5-0.6-0.9-1.7-0.9-2.7c0-2.6,2.1-5.2,5.7-5.2c3.1,0,5.2,2,5.2,4.9c0,3.3-1.7,5.5-3.9,5.5c-1.2,0-2.2-1-1.9-2.2
		c0.4-1.4,1-3,1-4c0-0.9-0.5-1.7-1.6-1.7c-1.3,0-2.3,1.2-2.3,2.9c0,1.1,0.4,1.8,0.4,1.8s-1.2,5-1.5,6C11.2,23.3,11.4,26,11.5,27"/>
	</symbol>

	<symbol id="sharetastic-instagram" viewBox="0 0 32 32">
		<title>Instagram</title>
		<path d="M24.9,12.3c0-1-0.2-1.6-0.4-2.2c-0.2-0.6-0.5-1.1-1-1.6c-0.5-0.5-1-0.8-1.6-1c-0.6-0.2-1.2-0.4-2.2-0.4
		C18.8,7,18.4,7,16,7s-2.8,0-3.7,0.1c-1,0-1.6,0.2-2.2,0.4C9.5,7.7,9,8,8.5,8.5c-0.5,0.5-0.8,1-1,1.6c-0.2,0.6-0.4,1.2-0.4,2.2
		C7,13.2,7,13.6,7,16c0,2.4,0,2.8,0.1,3.7c0,1,0.2,1.6,0.4,2.2c0.2,0.6,0.5,1.1,1,1.6c0.5,0.5,1,0.8,1.6,1c0.6,0.2,1.2,0.4,2.2,0.4
		c1,0,1.3,0.1,3.7,0.1s2.8,0,3.7-0.1c1,0,1.6-0.2,2.2-0.4c0.6-0.2,1.1-0.5,1.6-1c0.5-0.5,0.8-1,1-1.6c0.2-0.6,0.4-1.2,0.4-2.2
		c0-1,0.1-1.3,0.1-3.7C25,13.6,25,13.2,24.9,12.3z M23.3,19.6c0,0.9-0.2,1.4-0.3,1.7c-0.2,0.4-0.4,0.7-0.7,1c-0.3,0.3-0.6,0.5-1,0.7
		c-0.3,0.1-0.8,0.3-1.7,0.3c-0.9,0-1.2,0.1-3.6,0.1s-2.7,0-3.6-0.1c-0.9,0-1.4-0.2-1.7-0.3c-0.4-0.2-0.7-0.4-1-0.7
		c-0.3-0.3-0.5-0.6-0.7-1c-0.1-0.3-0.3-0.8-0.3-1.7c0-0.9-0.1-1.2-0.1-3.6s0-2.7,0.1-3.6c0-0.9,0.2-1.4,0.3-1.7
		c0.2-0.4,0.4-0.7,0.7-1s0.6-0.5,1-0.7c0.3-0.1,0.8-0.3,1.7-0.3c0.9,0,1.2-0.1,3.6-0.1s2.7,0,3.6,0.1c0.9,0,1.4,0.2,1.7,0.3
		c0.4,0.2,0.7,0.4,1,0.7c0.3,0.3,0.5,0.6,0.7,1c0.1,0.3,0.3,0.8,0.3,1.7c0,0.9,0.1,1.2,0.1,3.6S23.4,18.7,23.3,19.6z"/>
		<path d="M16,11.4c-2.6,0-4.6,2.1-4.6,4.6s2.1,4.6,4.6,4.6s4.6-2.1,4.6-4.6S18.6,11.4,16,11.4z M16,19
		c-1.7,0-3-1.3-3-3s1.3-3,3-3s3,1.3,3,3S17.7,19,16,19z"/>
		<circle cx="20.8" cy="11.2" r="1.1"/>
	</symbol>

	<symbol id="sharetastic-linkedin" viewBox="0 0 32 32">
		<title>LinkedIn</title>
		<path d="M11.6,23H8.3V12.3h3.3V23z M9.9,10.9C8.9,10.9,8,10,8,8.9C8,7.9,8.9,7,9.9,7c1.1,0,1.9,0.9,1.9,1.9
		C11.8,10,11,10.9,9.9,10.9z M24,23h-3.3v-5.2c0-1.2,0-2.8-1.7-2.8c-1.7,0-2,1.4-2,2.7V23h-3.3V12.3h3.2v1.5h0
		c0.4-0.8,1.5-1.7,3.1-1.7c3.4,0,4,2.2,4,5.1V23z"/>
	</symbol>

	<symbol id="sharetastic-flickr" viewBox="0 0 32 32">
		<title>Flickr</title>
		<circle cx="10" cy="16" r="4"/>
		<circle opacity="0.5" cx="22" cy="16" r="4"/>
	</symbol>

	<symbol id="sharetastic-email" viewBox="0 0 32 32">
		<title>Email</title>
		<path d="M8,22h16c0.5,0,0.9-0.4,1-0.9l-5.4-5.4l-2.2,1.5c-0.4,0.3-0.9,0.4-1.4,0.4s-1-0.1-1.4-0.4l-2.2-1.5L7,21.1
		C7.1,21.6,7.5,22,8,22z"/>
		<polygon points="11.6,15.2 7,12.1 7,19.8 	"/>
		<polygon points="25,19.7 25,12.1 20.5,15.2 	"/>
		<path d="M16.5,16.6l8.5-5.8c-0.1-0.5-0.5-0.8-1-0.8H8c-0.5,0-0.9,0.4-1,0.8l8.5,5.8C15.8,16.8,16.2,16.8,16.5,16.6z"/>
	</symbol>

	<symbol id="sharetastic-print" viewBox="0 0 32 32">
		<title>Print</title>
		<rect x="12" y="18" width="8" height="1"/>
		<rect x="12" y="20" width="8" height="1"/>
		<rect x="12" y="22" width="8" height="1"/>
		<path d="M24,12h-2V7H10v5H8c-0.5,0-1,0.5-1,1v6c0,0.5,0.5,1,1,1h2v5h12v-5h2c0.5,0,1-0.5,1-1v-6
		C25,12.5,24.5,12,24,12z M11,8h10v4H11V8z M21,24H11v-4v-2v-1h10v1v2V24z M23,15c-0.6,0-1-0.4-1-1c0-0.6,0.4-1,1-1s1,0.4,1,1
		C24,14.6,23.6,15,23,15z"/>
	</symbol>
</svg>





